<svg width="144" height="144" viewBox="0 0 144 144" fill="none" xmlns="http://www.w3.org/2000/svg">
<path d="M143.965 72.0093C143.965 70.0678 143.965 68.1599 143.747 66.269C143.663 65.2453 143.369 64.2501 142.884 63.3457C142.399 62.4414 141.734 61.6474 140.929 61.0134C140.125 60.3794 139.199 59.9192 138.209 59.6615C137.22 59.4038 136.188 59.3541 135.179 59.5157C121.577 61.6276 109.174 68.5504 100.201 79.0374C91.2284 89.5243 86.2769 102.886 86.2381 116.716C86.246 122.726 87.1928 128.696 89.0438 134.41C89.3634 135.37 89.8744 136.255 90.5457 137.01C91.217 137.765 92.0344 138.374 92.948 138.801C93.8617 139.228 94.8523 139.463 95.8593 139.491C96.8664 139.52 97.8687 139.342 98.8051 138.969C112.185 133.698 123.663 124.481 131.73 112.529C139.797 100.577 144.074 86.4508 143.999 72.0093" fill="#FF0D70"/>
<path d="M16.4983 110.115C15.703 111.456 15.348 113.014 15.4837 114.568C15.6194 116.123 16.2389 117.595 17.2543 118.776C24.0257 126.702 32.4243 133.06 41.873 137.414C51.3216 141.768 61.5964 144.015 71.9911 144C73.4024 144 74.8304 144 76.2249 143.882C77.3341 143.831 78.4175 143.529 79.3935 142.996C80.3695 142.464 81.2127 141.717 81.8596 140.81C82.5065 139.903 82.9403 138.86 83.1284 137.761C83.3164 136.661 83.2538 135.533 82.9452 134.461C80.4593 125.881 79.8001 116.871 81.0106 108.018C82.221 99.1646 85.2739 90.6671 89.9704 83.0788C94.6669 75.4905 100.902 68.9817 108.268 63.9763C115.635 58.971 123.968 55.5815 132.726 54.0286C133.813 53.8379 134.844 53.4036 135.742 52.758C136.64 52.1125 137.382 51.2721 137.913 50.2992C138.444 49.3263 138.75 48.2458 138.809 47.1378C138.868 46.0298 138.678 44.9227 138.253 43.8986C138.068 43.4427 137.85 42.97 137.648 42.4973C137.009 41.078 135.945 39.8943 134.605 39.1106C133.265 38.3269 131.716 37.9822 130.172 38.1245C106.931 40.3149 84.5299 47.9734 64.7815 60.4802C45.0331 72.9871 28.4924 89.9908 16.4983 110.115Z" fill="#FF0D70"/>
<path d="M29.1324 33.988C51.5957 24.4697 75.1531 17.8055 99.2587 14.1501C100.191 14.0114 101.054 13.572 101.717 12.898C102.379 12.2241 102.806 11.3521 102.933 10.4133C103.06 9.47452 102.88 8.51966 102.421 7.69246C101.961 6.86526 101.246 6.21047 100.384 5.82662C84.712 -0.894824 67.1799 -1.83289 50.886 3.17819C34.592 8.18927 20.5852 18.8269 11.3405 33.2114C10.8335 34.0164 10.602 34.9658 10.6811 35.9151C10.7603 36.8645 11.1458 37.7619 11.7791 38.4708C12.4123 39.1798 13.2586 39.6616 14.1893 39.8428C15.12 40.0241 16.0841 39.895 16.9351 39.4751C20.9505 37.5673 25.0163 35.727 29.1324 33.988Z" fill="#FF0D70"/>
<path d="M5.22501 52.0532C4.28517 52.5796 3.47069 53.3054 2.83819 54.18C2.20569 55.0547 1.77036 56.0574 1.56245 57.1182C-1.21041 70.2488 -0.279408 83.8965 4.25057 96.524C4.72111 97.795 5.52819 98.9128 6.58469 99.7567C7.64118 100.601 8.90696 101.138 10.2454 101.312C11.5838 101.486 12.9441 101.289 14.1793 100.743C15.4145 100.196 16.4778 99.3215 17.2543 98.2123C29.0412 81.1812 44.1035 66.6953 61.5524 55.6096C79.0013 44.5239 98.4832 37.063 118.848 33.6673C120.186 33.4585 121.441 32.8828 122.474 32.0036C123.507 31.1244 124.279 29.9758 124.705 28.6842C125.13 27.3926 125.193 26.008 124.886 24.6829C124.579 23.3577 123.914 22.1434 122.965 21.1736L121.805 20.0424C121.029 19.2964 120.102 18.7265 119.088 18.3712C118.073 18.0158 116.995 17.8833 115.925 17.9826C86.8369 20.7616 58.3403 27.9806 31.4173 39.3907C22.457 43.1951 13.7262 47.4159 5.22501 52.0532Z" fill="#FF0D70"/>
</svg>
